# Blender 4.0.2
# www.blender.org
mtllib mount2.mtl
o Cube
v 0.011016 1.013095 -0.011016
v 1.000000 -1.000000 -1.000000
v 0.011016 1.013095 0.011016
v 1.000000 -1.000000 1.000000
v -0.011016 1.013095 -0.011016
v -1.000000 -1.000000 -1.000000
v -0.011016 1.013095 0.011016
v -1.000000 -1.000000 1.000000
v 0.603610 -0.197998 -0.603610
v -0.603610 -0.197998 0.603610
v 0.603610 -0.197998 0.603610
v -0.603610 -0.197998 -0.603610
v 0.011458 1.018216 -0.011458
v 0.011458 1.018216 0.011458
v -0.011458 1.018216 -0.011458
v -0.011458 1.018216 0.011458
v 0.498968 0.025933 -0.497892
v -0.494726 0.030652 0.503755
v 0.511319 0.000317 0.514503
v -0.524546 0.010032 -0.520965
v 0.000000 1.018216 0.011458
v 0.000000 1.018216 -0.011458
v 0.011458 1.018216 0.000000
v -0.011458 1.018216 0.000000
v 0.000000 1.018216 0.000000
vn -0.0000 1.0000 -0.0000
vn -0.0000 0.4395 0.8982
vn -0.8982 0.4395 -0.0000
vn -0.0000 -1.0000 -0.0000
vn 0.8982 0.4395 -0.0000
vn -0.0000 0.4395 -0.8982
vn -0.0000 0.4431 -0.8965
vn 0.8965 0.4431 -0.0000
vn -0.8965 0.4431 -0.0000
vn -0.0000 0.4431 0.8965
vn 0.0038 0.4446 0.8957
vn -0.8946 0.4466 0.0169
vn 0.8976 0.4409 0.0002
vn 0.0131 0.4454 -0.8952
vn -0.0000 0.4510 -0.8925
vn -0.0000 0.4430 0.8965
vn 0.8975 0.4410 -0.0000
vt 0.313952 0.437500
vt 0.341856 0.437500
vt 0.341856 0.465404
vt 0.313952 0.465404
vt 0.297238 0.465404
vt 0.313952 0.493308
vt 0.297238 0.493308
vt 0.297238 0.381692
vt 0.313952 0.381692
vt 0.313952 0.409596
vt 0.297238 0.409596
vt 0.258144 0.437500
vt 0.286048 0.437500
vt 0.286048 0.465404
vt 0.258144 0.465404
vt 0.297238 0.437500
vt 0.286048 0.409596
vt 0.286048 0.381692
vt 0.286048 0.493308
vt 0.828534 0.574872
vt 0.903406 0.574872
vt 0.903406 0.649743
vt 0.828534 0.649743
vt 0.681243 0.724615
vt 0.753663 0.724615
vt 0.753663 0.799486
vt 0.681243 0.799486
vt 0.681243 0.275385
vt 0.753663 0.275385
vt 0.753663 0.350257
vt 0.681243 0.350257
vt 0.681243 0.574872
vt 0.753663 0.574872
vt 0.753663 0.649743
vt 0.681243 0.649743
vt 0.681243 0.425128
vt 0.753663 0.425128
vt 0.753663 0.500000
vt 0.681243 0.500000
vt 0.828534 0.500000
vt 0.681243 0.200514
vt 0.753663 0.200514
vt 0.903406 0.500000
s 0
usemtl Material
f 1/1/1 5/2/1 7/3/1 3/4/1
f 11/5/2 3/4/2 7/6/2 10/7/2
f 10/8/3 7/9/3 5/10/3 12/11/3
f 6/12/4 2/13/4 4/14/4 8/15/4
f 9/16/5 1/1/5 3/4/5 11/5/5
f 12/11/6 5/10/6 1/1/6 9/16/6
f 6/17/7 12/11/7 9/16/7 2/13/7
f 2/13/8 9/16/8 11/5/8 4/14/8
f 8/18/9 10/8/9 12/11/9 6/17/9
f 4/14/10 11/5/10 10/7/10 8/19/10
f 25/20/1 24/21/1 16/22/1 21/23/1
f 19/24/11 21/25/11 16/26/11 18/27/11
f 18/28/12 24/29/12 15/30/12 20/31/12
f 17/32/13 23/33/13 14/34/13 19/35/13
f 20/36/14 22/37/14 13/38/14 17/39/14
f 20/31/15 15/30/15 22/37/15
f 19/35/16 14/34/16 21/25/16
f 23/33/1 25/20/1 21/23/1 14/34/1
f 13/38/1 22/40/1 25/20/1 23/33/1
f 17/39/17 13/38/17 23/33/17
f 18/41/3 16/42/3 24/29/3
f 22/40/1 15/43/1 24/21/1 25/20/1
